# xmcd
#
# Track frame offsets: 
#        150
#        17189
#        37529
#        60201
#        76060
#        96256
#        119599
#        141339
#        161079
#        180029
#
# Disc length: 2713 seconds
#
# Revision: 0
# Processed by: cddbd v1.5.2PL0 Copyright (c) Steve Scherf et al.
# Submitted via: ExactAudioCopy v1.0b4
#
DISCID=6e0a970a
DTITLE=Jimmy Carpenter - Soul Doctor
DYEAR=2019
DGENRE=Blues
TTITLE0=Soul Doctor
TTITLE1=When I Met You
TTITLE2=Wild Streak
TTITLE3=Love It So Much
TTITLE4=Need Your Love So Bad
TTITLE5=Wanna Be Right
TTITLE6=One Mint Julep
TTITLE7=Wrong Turn
TTITLE8=LoFi Roulette
TTITLE9=Yeah Man
EXTD=
EXTT0=
EXTT1=
EXTT2=
EXTT3=
EXTT4=
EXTT5=
EXTT6=
EXTT7=
EXTT8=
EXTT9=
PLAYORDER=
